# xmcd
#
# Track frame offsets: 
#        150
#        10998
#        22745
#        35705
#        48248
#        62895
#        75915
#        87500
#        97088
#        108275
#        120123
#        132260
#
# Disc length: 1912 seconds
#
# Revision: 8
# Processed by: cddbd v1.5.2PL0 Copyright (c) Steve Scherf et al.
# Submitted via: ExactAudioCopyFreeDBPlugin 1.0
#
DISCID=8b07760c
DTITLE=Otis Redding - Pain in My Heart
DYEAR=1964
DGENRE=Soul
TTITLE0=Pain in My Heart
TTITLE1=The Dog
TTITLE2=Stand By Me
TTITLE3=Hey Hey Baby
TTITLE4=You Send Me
TTITLE5=I Need Your Lovin'
TTITLE6=These Arms of Mine
TTITLE7=Louie, Louie
TTITLE8=Something is Worrying Me
TTITLE9=Security
TTITLE10=That's What My Heart Needs
TTITLE11=Lucille
EXTD=
EXTT0=
EXTT1=
EXTT2=
EXTT3=
EXTT4=
EXTT5=
EXTT6=
EXTT7=
EXTT8=
EXTT9=
EXTT10=
EXTT11=
PLAYORDER=
